<?xml version="1.0" encoding="UTF-8"?>
<svg width="700pt" height="700pt" version="1.1" viewBox="0 0 700 700" xmlns="http://www.w3.org/2000/svg" xmlns:xlink="http://www.w3.org/1999/xlink">
 <defs>
  <symbol id="v" overflow="visible">
   <path d="m27.578-1.6562c-1.418 0.74219-2.8984 1.2969-4.4375 1.6719-1.543 0.375-3.1523 0.5625-4.8281 0.5625-5 0-8.9648-1.3945-11.891-4.1875-2.918-2.7891-4.375-6.582-4.375-11.375 0-4.7891 1.457-8.582 4.375-11.375 2.9258-2.8008 6.8906-4.2031 11.891-4.2031 1.6758 0 3.2852 0.1875 4.8281 0.5625 1.5391 0.375 3.0195 0.93359 4.4375 1.6719v6.2188c-1.4297-0.97656-2.8398-1.6953-4.2344-2.1562-1.3984-0.45703-2.8672-0.6875-4.4062-0.6875-2.7617 0-4.9336 0.88672-6.5156 2.6562-1.5859 1.7734-2.375 4.2109-2.375 7.3125 0 3.1055 0.78906 5.543 2.375 7.3125 1.582 1.7617 3.7539 2.6406 6.5156 2.6406 1.5391 0 3.0078-0.22266 4.4062-0.67188 1.3945-0.45703 2.8047-1.1758 4.2344-2.1562z"/>
  </symbol>
  <symbol id="l" overflow="visible">
   <path d="m20.188-16.391c-0.63672-0.28906-1.2656-0.50391-1.8906-0.64062-0.61719-0.14453-1.2422-0.21875-1.875-0.21875-1.8438 0-3.2656 0.59375-4.2656 1.7812s-1.5 2.8867-1.5 5.0938v10.375h-7.2031v-22.516h7.2031v3.7031c0.92578-1.4766 1.9883-2.5547 3.1875-3.2344 1.1953-0.67578 2.6328-1.0156 4.3125-1.0156 0.23828 0 0.5 0.011719 0.78125 0.03125 0.28125 0.023438 0.6875 0.070312 1.2188 0.14062z"/>
  </symbol>
  <symbol id="d" overflow="visible">
   <path d="m25.938-11.312v2.0469h-16.828c0.17578 1.6875 0.78516 2.9531 1.8281 3.7969 1.0391 0.84375 2.5 1.2656 4.375 1.2656 1.5195 0 3.0703-0.22266 4.6562-0.67188 1.5938-0.44531 3.2266-1.1289 4.9062-2.0469v5.5625c-1.7109 0.63672-3.418 1.1172-5.125 1.4375-1.6992 0.33203-3.3984 0.5-5.0938 0.5-4.0742 0-7.2422-1.0312-9.5-3.0938-2.2617-2.0703-3.3906-4.9766-3.3906-8.7188 0-3.6758 1.1094-6.5664 3.3281-8.6719 2.2188-2.1016 5.2695-3.1562 9.1562-3.1562 3.5391 0 6.375 1.0703 8.5 3.2031 2.125 2.125 3.1875 4.9766 3.1875 8.5469zm-7.4062-2.3906c0-1.375-0.40234-2.4766-1.2031-3.3125-0.79297-0.84375-1.8281-1.2656-3.1094-1.2656-1.3984 0-2.5312 0.39844-3.4062 1.1875-0.86719 0.78125-1.4062 1.9141-1.625 3.3906z"/>
  </symbol>
  <symbol id="c" overflow="visible">
   <path d="m13.547-10.125c-1.5 0-2.6328 0.25781-3.3906 0.76562-0.75 0.5-1.125 1.25-1.125 2.25 0 0.90625 0.30078 1.6211 0.90625 2.1406 0.61328 0.51172 1.4609 0.76562 2.5469 0.76562 1.3516 0 2.4883-0.48438 3.4062-1.4531 0.92578-0.96875 1.3906-2.1875 1.3906-3.6562v-0.8125zm11-2.7188v12.844h-7.2656v-3.3438c-0.96094 1.375-2.043 2.375-3.25 3-1.2109 0.61328-2.6797 0.92188-4.4062 0.92188-2.3359 0-4.2305-0.67578-5.6875-2.0312-1.4492-1.3633-2.1719-3.1289-2.1719-5.2969 0-2.6445 0.90625-4.582 2.7188-5.8125 1.8203-1.2383 4.6758-1.8594 8.5625-1.8594h4.2344v-0.5625c0-1.1328-0.44922-1.9688-1.3438-2.5-0.89844-0.53125-2.2969-0.79688-4.2031-0.79688-1.543 0-2.9766 0.15625-4.2969 0.46875-1.3242 0.3125-2.5586 0.77734-3.7031 1.3906v-5.4844c1.5391-0.375 3.0859-0.66016 4.6406-0.85938 1.5625-0.19531 3.1172-0.29688 4.6719-0.29688 4.0625 0 6.9922 0.80469 8.7969 2.4062 1.8008 1.6055 2.7031 4.2109 2.7031 7.8125z"/>
  </symbol>
  <symbol id="a" overflow="visible">
   <path d="m11.312-28.906v6.3906h7.4219v5.1406h-7.4219v9.5625c0 1.043 0.20703 1.75 0.625 2.125 0.41406 0.36719 1.2422 0.54688 2.4844 0.54688h3.6875v5.1406h-6.1719c-2.8438 0-4.8594-0.59375-6.0469-1.7812-1.1797-1.1875-1.7656-3.1953-1.7656-6.0312v-9.5625h-3.5781v-5.1406h3.5781v-6.3906z"/>
  </symbol>
  <symbol id="h" overflow="visible">
   <path d="m18.781-19.219v-12.062h7.2344v31.281h-7.2344v-3.25c-1 1.3242-2.1016 2.293-3.2969 2.9062-1.1875 0.61328-2.5625 0.92188-4.125 0.92188-2.7734 0-5.0547-1.0977-6.8438-3.2969-1.7812-2.207-2.6719-5.0469-2.6719-8.5156s0.89062-6.3047 2.6719-8.5156c1.7891-2.207 4.0703-3.3125 6.8438-3.3125 1.5508 0 2.9258 0.3125 4.125 0.9375 1.1953 0.625 2.2969 1.5938 3.2969 2.9062zm-4.75 14.578c1.5391 0 2.7188-0.5625 3.5312-1.6875s1.2188-2.7578 1.2188-4.9062c0-2.1445-0.40625-3.7812-1.2188-4.9062s-1.9922-1.6875-3.5312-1.6875c-1.5312 0-2.7031 0.5625-3.5156 1.6875-0.80469 1.125-1.2031 2.7617-1.2031 4.9062 0 2.1484 0.39844 3.7812 1.2031 4.9062 0.8125 1.125 1.9844 1.6875 3.5156 1.6875z"/>
  </symbol>
  <symbol id="g" overflow="visible">
   <path d="m15.438-4.6406c1.5391 0 2.7188-0.5625 3.5312-1.6875s1.2188-2.7578 1.2188-4.9062c0-2.1445-0.40625-3.7812-1.2188-4.9062s-1.9922-1.6875-3.5312-1.6875c-1.543 0-2.7266 0.57031-3.5469 1.7031-0.82422 1.125-1.2344 2.7578-1.2344 4.8906 0 2.125 0.41016 3.7578 1.2344 4.8906 0.82031 1.1367 2.0039 1.7031 3.5469 1.7031zm-4.7812-14.578c0.98828-1.3125 2.0859-2.2812 3.2969-2.9062 1.207-0.625 2.5938-0.9375 4.1562-0.9375 2.7812 0 5.0625 1.1055 6.8438 3.3125 1.7812 2.2109 2.6719 5.0469 2.6719 8.5156s-0.89062 6.3086-2.6719 8.5156c-1.7812 2.1992-4.0625 3.2969-6.8438 3.2969-1.5625 0-2.9492-0.30859-4.1562-0.92188-1.2109-0.625-2.3086-1.5938-3.2969-2.9062v3.25h-7.2031v-31.281h7.2031z"/>
  </symbol>
  <symbol id="f" overflow="visible">
   <path d="m0.5-22.516h7.2031l6.0469 15.281 5.1406-15.281h7.2031l-9.4688 24.641c-0.94922 2.5078-2.0586 4.2656-3.3281 5.2656-1.2617 1-2.9336 1.5-5.0156 1.5h-4.1562v-4.7344h2.25c1.2188 0 2.1016-0.19531 2.6562-0.57812 0.5625-0.38672 0.99219-1.0859 1.2969-2.0938l0.20312-0.625z"/>
  </symbol>
  <symbol id="b" overflow="visible">
   <path d="m24.672-29.062v6.3438c-1.6562-0.73828-3.2734-1.2969-4.8438-1.6719-1.5625-0.375-3.0391-0.5625-4.4219-0.5625-1.8555 0-3.2266 0.25781-4.1094 0.76562-0.88672 0.51172-1.3281 1.3047-1.3281 2.375 0 0.80469 0.29688 1.4297 0.89062 1.875 0.60156 0.44922 1.6875 0.83594 3.25 1.1562l3.2969 0.67188c3.3438 0.66797 5.7188 1.6875 7.125 3.0625 1.4062 1.3672 2.1094 3.3047 2.1094 5.8125 0 3.3125-0.98438 5.7773-2.9531 7.3906-1.9609 1.6172-4.9531 2.4219-8.9844 2.4219-1.9062 0-3.8203-0.18359-5.7344-0.54688-1.918-0.35156-3.8359-0.88281-5.75-1.5938v-6.5469c1.9141 1.0234 3.7656 1.793 5.5469 2.3125 1.7891 0.51172 3.5195 0.76562 5.1875 0.76562 1.6875 0 2.9766-0.28125 3.875-0.84375 0.89453-0.5625 1.3438-1.3633 1.3438-2.4062 0-0.9375-0.30859-1.6602-0.92188-2.1719-0.60547-0.50781-1.8203-0.96875-3.6406-1.375l-2.9844-0.65625c-3.0117-0.64453-5.2109-1.6719-6.5938-3.0781-1.3867-1.4062-2.0781-3.3008-2.0781-5.6875 0-2.9883 0.96094-5.2852 2.8906-6.8906 1.9375-1.6133 4.7109-2.4219 8.3281-2.4219 1.6445 0 3.3359 0.125 5.0781 0.375 1.75 0.25 3.5547 0.625 5.4219 1.125z"/>
  </symbol>
  <symbol id="u" overflow="visible">
   <path d="m24.328-18.781c0.90625-1.3945 1.9844-2.457 3.2344-3.1875 1.2578-0.72656 2.6406-1.0938 4.1406-1.0938 2.582 0 4.5508 0.79688 5.9062 2.3906 1.3516 1.5938 2.0312 3.918 2.0312 6.9688v13.703h-7.2344v-11.734c0.007812-0.17578 0.019531-0.35938 0.03125-0.54688 0.007812-0.1875 0.015625-0.45703 0.015625-0.8125 0-1.5938-0.23438-2.7422-0.70312-3.4531-0.46875-0.71875-1.2305-1.0781-2.2812-1.0781-1.3672 0-2.4219 0.5625-3.1719 1.6875-0.74219 1.125-1.1211 2.75-1.1406 4.875v11.062h-7.25v-11.734c0-2.5-0.21484-4.1016-0.64062-4.8125-0.42969-0.71875-1.1875-1.0781-2.2812-1.0781-1.3867 0-2.4531 0.57031-3.2031 1.7031-0.75 1.125-1.125 2.7422-1.125 4.8438v11.078h-7.2344v-22.516h7.2344v3.2969c0.88281-1.2695 1.8984-2.2266 3.0469-2.875 1.1445-0.64453 2.4062-0.96875 3.7812-0.96875 1.5625 0 2.9375 0.375 4.125 1.125 1.1953 0.75 2.1016 1.8047 2.7188 3.1562z"/>
  </symbol>
  <symbol id="t" overflow="visible">
   <path d="m21.047-21.812v5.4688c-1.543-0.64453-3.0312-1.1289-4.4688-1.4531-1.4297-0.32031-2.7773-0.48438-4.0469-0.48438-1.375 0-2.3984 0.17188-3.0625 0.51562-0.65625 0.34375-0.98438 0.87109-0.98438 1.5781 0 0.58594 0.25 1.0312 0.75 1.3438 0.5 0.30469 1.3984 0.52734 2.7031 0.67188l1.2656 0.1875c3.6875 0.46875 6.1641 1.2422 7.4375 2.3125 1.2812 1.0625 1.9219 2.7422 1.9219 5.0312 0 2.4062-0.88672 4.2148-2.6562 5.4219-1.7734 1.1992-4.4141 1.7969-7.9219 1.7969-1.4922 0-3.0312-0.12109-4.625-0.35938-1.5859-0.22656-3.2148-0.57812-4.8906-1.0469v-5.4688c1.4375 0.69922 2.9062 1.2266 4.4062 1.5781 1.5078 0.34375 3.0469 0.51562 4.6094 0.51562 1.4062 0 2.4609-0.19141 3.1719-0.57812 0.70703-0.39453 1.0625-0.97266 1.0625-1.7344 0-0.64453-0.24609-1.125-0.73438-1.4375-0.49219-0.3125-1.4648-0.55469-2.9219-0.73438l-1.2656-0.15625c-3.2109-0.40625-5.4609-1.1484-6.75-2.2344-1.2812-1.082-1.9219-2.7266-1.9219-4.9375 0-2.3828 0.81641-4.1562 2.4531-5.3125 1.6328-1.1562 4.1445-1.7344 7.5312-1.7344 1.3203 0 2.7109 0.10547 4.1719 0.3125 1.457 0.19922 3.0469 0.51172 4.7656 0.9375z"/>
  </symbol>
  <symbol id="e" overflow="visible">
   <path d="m26.094-13.703v13.703h-7.2344v-10.453c0-1.9688-0.046875-3.3203-0.14062-4.0625-0.085938-0.73828-0.23047-1.2812-0.4375-1.625-0.28125-0.46875-0.66797-0.83203-1.1562-1.0938-0.48047-0.25781-1.0273-0.39062-1.6406-0.39062-1.5 0-2.6836 0.57812-3.5469 1.7344-0.85547 1.1562-1.2812 2.7617-1.2812 4.8125v11.078h-7.2031v-31.281h7.2031v12.062c1.082-1.3125 2.2344-2.2812 3.4531-2.9062s2.5664-0.9375 4.0469-0.9375c2.5938 0 4.5625 0.79688 5.9062 2.3906 1.3516 1.5938 2.0312 3.918 2.0312 6.9688z"/>
  </symbol>
  <symbol id="s" overflow="visible">
   <path d="m3.4531-22.516h7.2031v22.516h-7.2031zm0-8.7656h7.2031v5.875h-7.2031z"/>
  </symbol>
  <symbol id="r" overflow="visible">
   <path d="m26.094-13.703v13.703h-7.2344v-10.5c0-1.9375-0.046875-3.2734-0.14062-4.0156-0.085938-0.73828-0.23047-1.2812-0.4375-1.625-0.28125-0.46875-0.66797-0.83203-1.1562-1.0938-0.48047-0.25781-1.0273-0.39062-1.6406-0.39062-1.5 0-2.6836 0.57812-3.5469 1.7344-0.85547 1.1562-1.2812 2.7617-1.2812 4.8125v11.078h-7.2031v-22.516h7.2031v3.2969c1.082-1.3125 2.2344-2.2812 3.4531-2.9062s2.5664-0.9375 4.0469-0.9375c2.5938 0 4.5625 0.79688 5.9062 2.3906 1.3516 1.5938 2.0312 3.918 2.0312 6.9688z"/>
  </symbol>
  <symbol id="q" overflow="visible">
   <path d="m18.781-3.8125c-1 1.3125-2.1016 2.2773-3.2969 2.8906-1.1875 0.61719-2.5625 0.92188-4.125 0.92188-2.75 0-5.0273-1.082-6.8281-3.25-1.793-2.1641-2.6875-4.9219-2.6875-8.2656 0-3.3633 0.89453-6.1172 2.6875-8.2656 1.8008-2.1562 4.0781-3.2344 6.8281-3.2344 1.5625 0 2.9375 0.30859 4.125 0.92188 1.1953 0.61719 2.2969 1.5898 3.2969 2.9219v-3.3438h7.2344v20.25c0 3.6133-1.1484 6.375-3.4375 8.2812-2.2812 1.9141-5.5938 2.875-9.9375 2.875-1.4062 0-2.7656-0.10938-4.0781-0.32812-1.3125-0.21094-2.6328-0.53906-3.9531-0.98438v-5.6094c1.2578 0.72656 2.4883 1.2695 3.6875 1.625 1.207 0.35156 2.4219 0.53125 3.6406 0.53125 2.3633 0 4.0938-0.51562 5.1875-1.5469 1.1016-1.0312 1.6562-2.6445 1.6562-4.8438zm-4.75-14.016c-1.4922 0-2.6523 0.55469-3.4844 1.6562-0.82422 1.0938-1.2344 2.6484-1.2344 4.6562 0 2.0625 0.39844 3.625 1.2031 4.6875 0.80078 1.0625 1.9727 1.5938 3.5156 1.5938 1.5 0 2.6641-0.54688 3.5-1.6406 0.83203-1.1016 1.25-2.6484 1.25-4.6406 0-2.0078-0.41797-3.5625-1.25-4.6562-0.83594-1.1016-2-1.6562-3.5-1.6562z"/>
  </symbol>
  <symbol id="p" overflow="visible">
   <path d="m14.172-17.906c-1.5938 0-2.8125 0.57422-3.6562 1.7188-0.83594 1.1484-1.25 2.7969-1.25 4.9531s0.41406 3.8086 1.25 4.9531c0.84375 1.1484 2.0625 1.7188 3.6562 1.7188 1.5703 0 2.7695-0.57031 3.5938-1.7188 0.83203-1.1445 1.25-2.7969 1.25-4.9531s-0.41797-3.8047-1.25-4.9531c-0.82422-1.1445-2.0234-1.7188-3.5938-1.7188zm0-5.1562c3.875 0 6.8984 1.0469 9.0781 3.1406 2.1758 2.0938 3.2656 4.9922 3.2656 8.6875 0 3.6992-1.0898 6.5938-3.2656 8.6875-2.1797 2.0859-5.2031 3.125-9.0781 3.125-3.8867 0-6.9297-1.0391-9.125-3.125-2.1875-2.0938-3.2812-4.9883-3.2812-8.6875 0-3.6953 1.0938-6.5938 3.2812-8.6875 2.1953-2.0938 5.2383-3.1406 9.125-3.1406z"/>
  </symbol>
  <symbol id="o" overflow="visible">
   <path d="m21.656-21.812v5.875c-0.98047-0.67578-1.9648-1.1719-2.9531-1.4844-0.98047-0.32031-2-0.48438-3.0625-0.48438-2.0117 0-3.5781 0.58984-4.7031 1.7656-1.1172 1.168-1.6719 2.8047-1.6719 4.9062 0 2.1055 0.55469 3.7461 1.6719 4.9219 1.125 1.168 2.6914 1.75 4.7031 1.75 1.125 0 2.1914-0.16406 3.2031-0.5 1.0078-0.33203 1.9453-0.82812 2.8125-1.4844v5.8906c-1.125 0.40625-2.2734 0.71094-3.4375 0.92188-1.1562 0.20703-2.3203 0.3125-3.4844 0.3125-4.0625 0-7.2422-1.0391-9.5312-3.125-2.293-2.082-3.4375-4.9766-3.4375-8.6875 0-3.7188 1.1445-6.6172 3.4375-8.7031 2.2891-2.082 5.4688-3.125 9.5312-3.125 1.1758 0 2.3359 0.10547 3.4844 0.3125 1.1445 0.21094 2.2891 0.52344 3.4375 0.9375z"/>
  </symbol>
  <symbol id="n" overflow="visible">
   <path d="m3.4531-31.281h7.2031v17.031l8.2812-8.2656h8.3594l-11 10.328 11.875 12.188h-8.7344l-8.7812-9.3906v9.3906h-7.2031z"/>
  </symbol>
  <symbol id="m" overflow="visible">
   <path d="m18.281-31.281v4.7188h-3.9844c-1.0234 0-1.7344 0.1875-2.1406 0.5625-0.39844 0.36719-0.59375 1.0078-0.59375 1.9219v1.5625h6.1562v5.1406h-6.1562v17.375h-7.2031v-17.375h-3.5781v-5.1406h3.5781v-1.5625c0-2.457 0.67969-4.2695 2.0469-5.4375 1.375-1.1758 3.4922-1.7656 6.3594-1.7656z"/>
  </symbol>
  <symbol id="k" overflow="visible">
   <path d="m3.7812-30.016h8.6406l10.922 20.594v-20.594h7.3281v30.016h-8.6406l-10.906-20.594v20.594h-7.3438z"/>
  </symbol>
  <symbol id="j" overflow="visible">
   <path d="m3.7812-30.016h12.844c3.8203 0 6.7539 0.85156 8.7969 2.5469 2.0391 1.6992 3.0625 4.1172 3.0625 7.25 0 3.1484-1.0234 5.5703-3.0625 7.2656-2.043 1.6992-4.9766 2.5469-8.7969 2.5469h-5.1094v10.406h-7.7344zm7.7344 5.6094v8.3906h4.2812c1.5 0 2.6562-0.36328 3.4688-1.0938 0.82031-0.73828 1.2344-1.7734 1.2344-3.1094 0-1.3438-0.41406-2.375-1.2344-3.0938-0.8125-0.72656-1.9688-1.0938-3.4688-1.0938z"/>
  </symbol>
  <symbol id="i" overflow="visible">
   <path d="m3.4531-22.516h7.2031v22.109c0 3.0195-0.72656 5.3203-2.1719 6.9062-1.4492 1.5938-3.5469 2.3906-6.2969 2.3906h-3.5469v-4.7344h1.2344c1.375 0 2.3125-0.30859 2.8125-0.92188 0.50781-0.61719 0.76562-1.8281 0.76562-3.6406zm0-8.7656h7.2031v5.875h-7.2031z"/>
  </symbol>
 </defs>
 <g>
  <path d="m508.43 356.2c-0.003906-0.003906-0.007813-0.007812-0.011719-0.007812-0.011719-0.003906-0.019531-0.011719-0.027344-0.015625-21.742-12.27-44.293-14.555-66.211-8.1875-0.375-0.66406-0.80078-1.4141-1.2266-2.168l-16.133-28.617c-0.015625-0.027344-0.046875-0.042969-0.066407-0.074219-8.7109-15.449-19.574-34.734-31.621-56.133 30.934-57.719 67.094-124.91 84.434-156.46 10.277-18.703 11.16-37.441 2.668-57.32-3.8359-8.8438-9.3008-17.355-16.711-26.031-2.9648-3.4688-7.4062-5.2617-11.941-4.8359-4.4648 0.43359-8.4492 3.0273-10.652 6.9336-18.969 33.594-55.312 98.023-90.961 161.22-30.758-54.648-60.359-107.02-90.965-161.19-2.1992-3.9219-6.1719-6.5352-10.633-6.9766-4.4961-0.45703-8.9609 1.3438-11.953 4.8281-7.3906 8.6719-12.844 17.207-16.672 26.105-8.4766 19.844-7.5977 38.582 2.6836 57.285 15.723 28.598 48.375 89.285 77.184 142.83l7.2734 13.516c-60.141 106.65-46.621 82.684-49.105 87.086-32.125-9.332-62.938 1.2148-88.008 23.766-19.336 17.391-31.34 40.203-35.777 68.102-4.2812 26.652 0.92188 50.496 15.469 70.883 23.758 33.188 70.207 45.195 113.67 15.699 18.621-12.77 32.75-30.773 43.195-55.047 4.7422-11.09 7.6758-22.578 10.516-33.688 5.9219-23.219 14.422-54.531 23.059-76.875 0.6875-1.3906 4.3438-8.3125 10.09-19.121 6.4219 12.078 9.375 17.699 9.8906 18.699 0.027344 0.0625 0.042969 0.11719 0.070313 0.18359 15.105 39.012 25.23 91.117 33.668 110.82 32.625 75.879 115.56 97.113 156.9 39.355 0.003906-0.003906 0.007812-0.003906 0.007812-0.011718 14.539-20.375 19.742-44.215 15.465-70.855-5.918-37.223-25.281-65.379-57.566-83.695zm-99.629 108.74c-7.4727-17.477-11.695-43.543-24.973-85.711-1.4805-4.6953-1.4688-4.9102-4.7969-14.348-0.53516-1.5195-1.0156-3.0586-1.5742-4.5703 7.1484-5.332 22.309-16.238 37.488-27.039 0.47266 0.83594 3.4531 6.125 15.73 27.859 1.4492 2.5664 6.4023 5.4961 10.504 4.3516 2.6406-0.22266 27.906-12.582 59.141 5.0508 26.648 15.227 44.148 39.031 49.375 71.922 0.003906 0.007812 0.003906 0.011719 0.003906 0.015625 3.5703 22.215-0.66797 41.965-12.598 58.684-30.746 42.938-98.805 32.34-128.3-36.215zm44.57-430.19c5.1211 6.3984 8.9805 12.641 11.73 18.98 6.4414 15.078 5.8164 28.703-1.9727 42.875-14.574 26.527-53.574 98.918-86.5 160.31-0.054687 0.09375-0.13672 0.16406-0.1875 0.26172-17.969 33.625-37.016 69.211-46.902 87.969-7.1328-5.5-18.586-13.676-36.406-26.32 10.898-19.328 24.598-43.621 39.531-70.102 7.9219-14 16.164-28.578 24.5-43.344 0.0625-0.11328 0.082031-0.23828 0.14062-0.34766 36.652-64.996 75.32-133.55 96.066-170.29zm-136.92 209.18-2.3359-4.3398c-28.824-53.578-61.496-114.3-77.25-142.96-7.7891-14.172-8.418-27.793-1.9844-42.863 2.7461-6.3828 6.5859-12.629 11.668-19 31.203 55.219 62.93 111.36 93.957 166.52-7.2852 12.914-14.461 25.641-21.391 37.926-0.875 1.5625-1.7891 3.1836-2.6641 4.7227zm-15.559 189.7c-2.8086 10.984-5.457 21.363-9.6914 31.27-9.1719 21.312-21.395 37-37.34 47.934-35.473 24.07-72.105 14.711-90.996-11.668-12.5-17.52-16.004-37.539-12.602-58.707 8.4727-53.277 56.418-92.602 104.92-78.051 0.82422 0 9.1211 4.1562 13.73-2.832 0.10547-0.16016 0.26953-0.27344 0.36328-0.44141 3.2578-5.7812 11.168-19.805 15.715-27.875 15.184 10.809 30.352 21.723 37.504 27.055-7.4453 20.242-16.32 52.559-21.605 73.316zm83.023-155.42c8.4492 15.004 16.188 28.742 22.891 40.633-17.773 12.605-29.219 20.777-36.355 26.277-2.3516-4.457-5.8359-11.027-11.113-20.93 6.9844-13.098 15.406-28.852 24.578-45.98z"/>
  <path d="m531.96 457.95c1.7812-50.52-56.688-91.051-93.621-63.711-22.945 16.992-24.77 53.562-4.0742 81.508 19.398 26.195 54.637 37.898 79.09 19.785 11.438-8.4688 18.047-21.812 18.605-37.582zm-84.457 7.9961c-15.297-20.652-15.008-46.879 0.64063-58.469 25.281-18.734 68.676 12.555 67.355 49.891-1.2891 36.645-44.152 40.77-67.996 8.5781z"/>
  <path d="m261.61 394.23c-22.988-17.027-58.531-8.1289-79.234 19.816-19.273 26.035-20.52 63.16 4.2148 81.477 24.727 18.312 59.883 6.1641 79.094-19.785 9.8359-13.277 14.965-28.887 14.457-43.949-0.53516-15.766-7.1172-29.105-18.531-37.559zm-9.1641 71.711c-13.402 18.098-38.738 29.168-56.051 16.348-17.383-12.859-14.195-40.32-0.78125-58.434 15.297-20.648 40.508-27.996 56.191-16.387 7.293 5.3984 11.508 14.238 11.871 24.883 0.38672 11.355-3.5977 23.289-11.23 33.59z"/>
  <path d="m343.77 251.94c-0.74219 0.74219-1.3203 1.6445-1.8125 2.6328-0.41016 1.0703-0.57422 2.1445-0.57422 3.2109 0 0.49609 0 1.0742 0.16406 1.5625 0.082031 0.57812 0.24609 1.0703 0.41016 1.5664 0.25 0.49219 0.49609 0.98438 0.82422 1.3984 0.24609 0.49219 0.66016 0.90234 0.98828 1.2305 1.5625 1.5664 3.6211 2.4727 5.8477 2.4727 1.0703 0 2.1406-0.24609 3.1289-0.66016 0.98828-0.41016 1.8945-0.98438 2.6328-1.8125 0.41406-0.32812 0.74219-0.73828 1.0742-1.2305 0.32812-0.41406 0.57422-0.91016 0.73828-1.3984 0.24609-0.5 0.41016-0.98828 0.49609-1.5664 0.082031-0.49219 0.16406-1.0703 0.16406-1.5625 0-2.1445-0.90625-4.2812-2.4727-5.8477-3.043-3.0469-8.5625-3.0469-11.609 0.003906z"/>
  <use x="70" y="683.53125" xlink:href="#v"/>
  <use x="100.21875" y="683.53125" xlink:href="#l"/>
  <use x="120.527344" y="683.53125" xlink:href="#d"/>
  <use x="148.453125" y="683.53125" xlink:href="#c"/>
  <use x="176.238281" y="683.53125" xlink:href="#a"/>
  <use x="195.921875" y="683.53125" xlink:href="#d"/>
  <use x="223.847656" y="683.53125" xlink:href="#h"/>
  <use x="267.660156" y="683.53125" xlink:href="#g"/>
  <use x="297.132812" y="683.53125" xlink:href="#f"/>
  <use x="338.3125" y="683.53125" xlink:href="#b"/>
  <use x="367.964844" y="683.53125" xlink:href="#u"/>
  <use x="410.871094" y="683.53125" xlink:href="#c"/>
  <use x="438.65625" y="683.53125" xlink:href="#t"/>
  <use x="463.167969" y="683.53125" xlink:href="#e"/>
  <use x="492.480469" y="683.53125" xlink:href="#s"/>
  <use x="506.59375" y="683.53125" xlink:href="#r"/>
  <use x="535.910156" y="683.53125" xlink:href="#q"/>
  <use x="579.71875" y="683.53125" xlink:href="#b"/>
  <use x="609.375" y="683.53125" xlink:href="#a"/>
  <use x="629.058594" y="683.53125" xlink:href="#p"/>
  <use x="657.347656" y="683.53125" xlink:href="#o"/>
  <use x="681.757812" y="683.53125" xlink:href="#n"/>
  <use x="70" y="724.707031" xlink:href="#m"/>
  <use x="193.75" y="724.707031" xlink:href="#a"/>
  <use x="213.433594" y="724.707031" xlink:href="#e"/>
  <use x="285.011719" y="724.707031" xlink:href="#k"/>
  <use x="420.722656" y="724.707031" xlink:href="#j"/>
  <use x="499.496094" y="724.707031" xlink:href="#i"/>
  <use x="565.945312" y="724.707031" xlink:href="#a"/>
 </g>
</svg>
